<svg id="Mastercard-logo" xmlns="http://www.w3.org/2000/svg" width="58.741" height="45.619" viewBox="0 0 58.741 45.619">
  <path id="XMLID_1775_" d="M57.519,666.061v-3.028a1.776,1.776,0,0,0-1.917-1.917,1.985,1.985,0,0,0-1.717.858,1.771,1.771,0,0,0-1.617-.858,1.626,1.626,0,0,0-1.411.706v-.605H49.8v4.844h1.058v-2.675c0-.858.453-1.264,1.158-1.264s1.058.453,1.058,1.264v2.675h1.058v-2.675a1.118,1.118,0,0,1,1.158-1.264c.705,0,1.058.453,1.058,1.264v2.675Zm15.7-4.844H71.5v-1.464H70.441v1.464h-.958v.958h.958V664.4c0,1.111.453,1.764,1.664,1.764a2.846,2.846,0,0,0,1.311-.353l-.306-.911a1.693,1.693,0,0,1-.911.253c-.506,0-.705-.306-.705-.805v-2.169h1.717v-.958Zm8.983-.106a1.434,1.434,0,0,0-1.264.705v-.605H79.876v4.844h1.058v-2.728c0-.805.353-1.264,1.011-1.264a3.247,3.247,0,0,1,.658.1l.306-1.011a4.2,4.2,0,0,0-.711-.041Zm-13.574.506a3.472,3.472,0,0,0-1.969-.506c-1.211,0-2.016.606-2.016,1.564,0,.805.606,1.264,1.664,1.411l.506.053c.553.1.858.253.858.506,0,.353-.406.606-1.111.606a2.79,2.79,0,0,1-1.617-.506l-.506.805a3.547,3.547,0,0,0,2.069.605c1.411,0,2.222-.658,2.222-1.564,0-.858-.658-1.311-1.664-1.464l-.506-.053c-.453-.053-.805-.153-.805-.453,0-.353.353-.553.911-.553a3.641,3.641,0,0,1,1.517.406l.447-.858Zm28.154-.506a1.434,1.434,0,0,0-1.264.705v-.605H94.455v4.844h1.058v-2.728c0-.805.353-1.264,1.011-1.264a3.247,3.247,0,0,1,.658.1l.306-1a3.22,3.22,0,0,0-.711-.053Zm-13.521,2.528a2.424,2.424,0,0,0,2.575,2.522,2.535,2.535,0,0,0,1.717-.553l-.506-.858a2.022,2.022,0,0,1-1.264.453,1.432,1.432,0,0,1-1.464-1.564,1.484,1.484,0,0,1,1.464-1.564,2.069,2.069,0,0,1,1.264.453l.506-.858a2.506,2.506,0,0,0-1.717-.553,2.421,2.421,0,0,0-2.575,2.522Zm9.788,0v-2.422H91.986v.606a1.828,1.828,0,0,0-1.517-.706,2.524,2.524,0,0,0,0,5.044,1.711,1.711,0,0,0,1.517-.705v.606h1.058v-2.422Zm-3.886,0a1.467,1.467,0,1,1,2.928,0,1.467,1.467,0,1,1-2.928,0ZM76.5,661.111a2.523,2.523,0,0,0,.053,5.044,3.075,3.075,0,0,0,1.969-.658l-.506-.758a2.4,2.4,0,0,1-1.411.506,1.364,1.364,0,0,1-1.464-1.158h3.58v-.406a2.234,2.234,0,0,0-2.222-2.569Zm0,.911a1.179,1.179,0,0,1,1.211,1.158H75.185a1.276,1.276,0,0,1,1.311-1.158Zm26.29,1.617V659.3h-1.058v2.522a1.828,1.828,0,0,0-1.517-.706,2.524,2.524,0,0,0,0,5.044,1.711,1.711,0,0,0,1.517-.705v.606h1.058v-2.422Zm-3.886,0a1.467,1.467,0,1,1,2.928,0,1.467,1.467,0,1,1-2.928,0Zm-35.426,0v-2.422H62.416v.606a1.828,1.828,0,0,0-1.517-.706,2.524,2.524,0,0,0,0,5.044,1.711,1.711,0,0,0,1.517-.705v.606h1.058v-2.422Zm-3.933,0a1.467,1.467,0,1,1,2.928,0,1.467,1.467,0,1,1-2.928,0Z" transform="translate(-46.872 -620.541)"/>
  <g id="Group_9271" data-name="Group 9271">
    <rect id="rect19" width="15.896" height="28.559" transform="translate(21.399 3.886)" fill="#ff5a00"/>
    <path id="XMLID_330_" d="M22.457,18.166a18.217,18.217,0,0,1,6.913-14.28A18.16,18.16,0,1,0,18.166,36.331a18.068,18.068,0,0,0,11.205-3.886A18.129,18.129,0,0,1,22.457,18.166Z" fill="#eb001b"/>
    <path id="path22" d="M528.971,18.166a18.148,18.148,0,0,1-29.37,14.28,18.2,18.2,0,0,0,0-28.559,18.148,18.148,0,0,1,29.37,14.28Z" transform="translate(-470.229 0)" fill="#f79e1b"/>
  </g>
</svg>
